<svg xmlns="http://www.w3.org/2000/svg" version="1.1" xmlns:xlink="http://www.w3.org/1999/xlink" xmlns:svgjs="http://svgjs.dev/svgjs" width="1440" height="560" preserveAspectRatio="none" viewBox="0 0 1440 560"><g mask="url(&quot;#SvgjsMask1008&quot;)" fill="none"><path d="M0 97.77L10 113.61L20 81.56L30 16.14L40 23.46L50 60.59L60 118.57L70 159.77L80 172.46L90 106.38L100 122.96L110 117.26L120 64.94L130 54.6L140 72.97L150 58.43L160 62.71L170 51.22L180 41.52L190 105.61L200 88.27L210 110.05L220 142.41L230 101.45L240 137.91L250 207.61L260 163.87L270 218.96L280 175.36L290 226.99L300 213.75L310 188.26L320 246.54L330 230.56L340 265.38L350 260.31L360 225.38L370 190.74L380 220L390 243.3L400 281.77L410 287.57L420 222.9L430 266.32L440 206.14L450 246.77L460 267.73L470 291.48L480 347.81L490 315.67L500 317.36L510 360.59L520 340.4L530 365.53L540 431.57L550 472.16L560 441.05L570 378.49L580 410.84L590 452.28L600 438.1L610 490.69L620 430.43L630 417.24L640 349.32L650 392.83L660 443.37L670 436.61L680 497.12L690 464.11L700 445.65L710 425.02L720 369.14L730 414.66L740 482.2L750 491.35L760 501.39L770 515.34L780 502.69L790 553.23L800 488.62L810 469.92L820 418.81L830 453.5L840 521.53L850 521.28L860 468.91L870 476.76L880 409.77L890 469.92L900 517.46L910 492.34L920 426.3L930 406.76L940 425.2L950 372.8L960 416.52L970 352.96L980 326.14L990 317.98L1000 324.05L1010 328.32L1020 392.94L1030 460.16L1040 450.84L1050 384.29L1060 366.61L1070 370L1080 354.57L1090 413.93L1100 455.19L1110 507.51L1120 501.52L1130 511.07L1140 547.16L1150 477.89L1160 511.5L1170 451.39L1180 411.82L1190 458.69L1200 425.21L1210 445.53L1220 498.68L1230 490.84L1240 550.84L1250 549.34L1260 522.88L1270 544.03L1280 548.98L1290 487.14L1300 418.89L1310 371.5L1320 359.01L1330 312.16L1340 312.55L1350 324.15L1360 266.99L1370 241.03L1380 239.95L1390 282.78L1400 315.3L1410 279.17L1420 327.5L1430 376.75L1440 312.52" stroke="rgba(163, 179, 164, 1)" stroke-width="2"></path><path d="M0 97.77L10 113.61L20 81.56L30 16.14L40 23.46L50 60.59L60 118.57L70 159.77L80 172.46L90 106.38L100 122.96L110 117.26L120 64.94L130 54.6L140 72.97L150 58.43L160 62.71L170 51.22L180 41.52L190 105.61L200 88.27L210 110.05L220 142.41L230 101.45L240 137.91L250 207.61L260 163.87L270 218.96L280 175.36L290 226.99L300 213.75L310 188.26L320 246.54L330 230.56L340 265.38L350 260.31L360 225.38L370 190.74L380 220L390 243.3L400 281.77L410 287.57L420 222.9L430 266.32L440 206.14L450 246.77L460 267.73L470 291.48L480 347.81L490 315.67L500 317.36L510 360.59L520 340.4L530 365.53L540 431.57L550 472.16L560 441.05L570 378.49L580 410.84L590 452.28L600 438.1L610 490.69L620 430.43L630 417.24L640 349.32L650 392.83L660 443.37L670 436.61L680 497.12L690 464.11L700 445.65L710 425.02L720 369.14L730 414.66L740 482.2L750 491.35L760 501.39L770 515.34L780 502.69L790 553.23L800 488.62L810 469.92L820 418.81L830 453.5L840 521.53L850 521.28L860 468.91L870 476.76L880 409.77L890 469.92L900 517.46L910 492.34L920 426.3L930 406.76L940 425.2L950 372.8L960 416.52L970 352.96L980 326.14L990 317.98L1000 324.05L1010 328.32L1020 392.94L1030 460.16L1040 450.84L1050 384.29L1060 366.61L1070 370L1080 354.57L1090 413.93L1100 455.19L1110 507.51L1120 501.52L1130 511.07L1140 547.16L1150 477.89L1160 511.5L1170 451.39L1180 411.82L1190 458.69L1200 425.21L1210 445.53L1220 498.68L1230 490.84L1240 550.84L1250 549.34L1260 522.88L1270 544.03L1280 548.98L1290 487.14L1300 418.89L1310 371.5L1320 359.01L1330 312.16L1340 312.55L1350 324.15L1360 266.99L1370 241.03L1380 239.95L1390 282.78L1400 315.3L1410 279.17L1420 327.5L1430 376.75L1440 312.52L1440 560L0 560z" fill="url(&quot;#SvgjsLinearGradient1009&quot;)"></path></g><defs><mask id="SvgjsMask1008"><rect width="1440" height="560" fill="#ffffff"></rect></mask><linearGradient x1="50%" y1="0%" x2="50%" y2="100%" id="SvgjsLinearGradient1009"><stop stop-opacity="0.65" stop-color="rgba(163, 179, 164, 1)" offset="0"></stop><stop stop-opacity="0" stop-color="#ffffff" offset="0.8"></stop></linearGradient></defs></svg>