<svg xmlns="http://www.w3.org/2000/svg" version="1.1" xmlns:xlink="http://www.w3.org/1999/xlink" xmlns:svgjs="http://svgjs.dev/svgjs" width="1440" height="250" preserveAspectRatio="none" viewBox="0 0 1440 250"><g mask="url(&quot;#SvgjsMask1018&quot;)" fill="none"><path d="M43 250L293 0L464 0L214 250z" fill="url(&quot;#SvgjsLinearGradient1019&quot;)"></path><path d="M253.60000000000002 250L503.6 0L812.6 0L562.6 250z" fill="url(&quot;#SvgjsLinearGradient1019&quot;)"></path><path d="M500.20000000000005 250L750.2 0L1107.2 0L857.2 250z" fill="url(&quot;#SvgjsLinearGradient1019&quot;)"></path><path d="M752.8000000000001 250L1002.8000000000001 0L1266.8000000000002 0L1016.8000000000001 250z" fill="url(&quot;#SvgjsLinearGradient1019&quot;)"></path><path d="M1436 250L1186 0L1006 0L1256 250z" fill="url(&quot;#SvgjsLinearGradient1020&quot;)"></path><path d="M1198.4 250L948.4000000000001 0L595.9000000000001 0L845.9000000000001 250z" fill="url(&quot;#SvgjsLinearGradient1020&quot;)"></path><path d="M959.8 250L709.8 0L490.79999999999995 0L740.8 250z" fill="url(&quot;#SvgjsLinearGradient1020&quot;)"></path><path d="M697.1999999999999 250L447.19999999999993 0L172.69999999999993 0L422.69999999999993 250z" fill="url(&quot;#SvgjsLinearGradient1020&quot;)"></path><path d="M1313.975230368149 250L1440 123.975230368149L1440 250z" fill="url(&quot;#SvgjsLinearGradient1019&quot;)"></path><path d="M0 250L126.024769631851 250L 0 123.975230368149z" fill="url(&quot;#SvgjsLinearGradient1020&quot;)"></path></g><defs><mask id="SvgjsMask1018"><rect width="1440" height="250" fill="#ffffff"></rect></mask><linearGradient x1="0%" y1="100%" x2="100%" y2="0%" id="SvgjsLinearGradient1019"><stop stop-color="rgba(116, 141, 64, 0.62)" offset="0"></stop><stop stop-opacity="0" stop-color="rgba(116, 141, 64, 0.62)" offset="0.66"></stop></linearGradient><linearGradient x1="100%" y1="100%" x2="0%" y2="0%" id="SvgjsLinearGradient1020"><stop stop-color="rgba(116, 141, 64, 0.62)" offset="0"></stop><stop stop-opacity="0" stop-color="rgba(116, 141, 64, 0.62)" offset="0.66"></stop></linearGradient></defs></svg>