<svg xmlns="http://www.w3.org/2000/svg" version="1.1" xmlns:xlink="http://www.w3.org/1999/xlink" xmlns:svgjs="http://svgjs.dev/svgjs" width="1440" height="560" preserveAspectRatio="none" viewBox="0 0 1440 560"><g mask="url(&quot;#SvgjsMask1005&quot;)" fill="none"><path d="M -881.3326110459802,237 C -785.33,266.2 -593.33,379.6 -401.3326110459803,383 C -209.33,386.4 -113.33,240.4 78.66738895401971,254 C 270.67,267.6 366.67,480.4 558.6673889540198,451 C 750.67,421.6 862.4,104 1038.6673889540198,107 C 1214.93,110 1359.73,394.2 1440,466" stroke="rgba(179, 179, 179, 1)" stroke-width="2"></path><path d="M -497.61652714816097,85 C -401.62,155.8 -209.62,432.4 -17.616527148160994,439 C 174.38,445.6 270.38,145.2 462.38347285183903,118 C 654.38,90.8 750.38,301 942.383472851839,303 C 1134.38,305 1322.86,93.4 1422.383472851839,128 C 1521.91,162.6 1436.48,406.4 1440,476" stroke="rgba(183, 183, 183, 1)" stroke-width="2"></path><path d="M -722.8730448834224,171 C -626.87,221.8 -434.87,409.4 -242.8730448834224,425 C -50.87,440.6 45.13,277.4 237.1269551165776,249 C 429.13,220.6 525.13,281.6 717.1269551165776,283 C 909.13,284.4 1052.55,212 1197.1269551165776,256 C 1341.7,300 1391.43,453.6 1440,503" stroke="rgba(179, 179, 179, 1)" stroke-width="2"></path><path d="M -719.7919052758652,442 C -623.79,401 -431.79,227.6 -239.7919052758652,237 C -47.79,246.4 48.21,493.8 240.2080947241348,489 C 432.21,484.2 528.21,245.6 720.2080947241348,213 C 912.21,180.4 1056.25,353.4 1200.2080947241348,326 C 1344.17,298.6 1392.04,126 1440,76" stroke="rgba(183, 183, 183, 1)" stroke-width="2"></path></g><defs><mask id="SvgjsMask1005"><rect width="1440" height="560" fill="#ffffff"></rect></mask></defs></svg>