<?xml version="1.0" encoding="UTF-8"?>
<!DOCTYPE svg PUBLIC "-//W3C//DTD SVG 1.1//EN" "http://www.w3.org/Graphics/SVG/1.1/DTD/svg11.dtd">
<svg xmlns="http://www.w3.org/2000/svg" version="1.1" width="120px" height="120px" style="shape-rendering:geometricPrecision; text-rendering:geometricPrecision; image-rendering:optimizeQuality; fill-rule:evenodd; clip-rule:evenodd" xmlns:xlink="http://www.w3.org/1999/xlink">
<g><path style="opacity:0.971" fill="#ff84af" d="M 6.5,-0.5 C 11.5,-0.5 16.5,-0.5 21.5,-0.5C 21.5,7.5 21.5,15.5 21.5,23.5C 14.2094,22.6076 6.87609,22.2743 -0.5,22.5C -0.5,17.1667 -0.5,11.8333 -0.5,6.5C 0.558465,5.39977 1.3918,4.06644 2,2.5C 3.65161,1.60064 5.15161,0.60064 6.5,-0.5 Z"/></g>
<g><path style="opacity:0.998" fill="#fd82af" d="M 21.5,-0.5 C 21.8333,-0.5 22.1667,-0.5 22.5,-0.5C 22.5,7.83333 22.5,16.1667 22.5,24.5C 30.5,24.5 38.5,24.5 46.5,24.5C 39.3524,25.4916 32.0191,25.825 24.5,25.5C 24.5,32.8333 24.5,40.1667 24.5,47.5C 24.1667,47.5 23.8333,47.5 23.5,47.5C 23.5,44.5 23.5,41.5 23.5,38.5C 23.665,35.1501 23.4983,31.8168 23,28.5C 22.5348,27.0692 21.7014,25.9025 20.5,25C 13.5888,23.6156 6.58884,23.1156 -0.5,23.5C -0.5,23.1667 -0.5,22.8333 -0.5,22.5C 6.87609,22.2743 14.2094,22.6076 21.5,23.5C 21.5,15.5 21.5,7.5 21.5,-0.5 Z"/></g>
<g><path style="opacity:0.992" fill="#fe89ae" d="M 22.5,-0.5 C 22.8333,-0.5 23.1667,-0.5 23.5,-0.5C 23.5,7.5 23.5,15.5 23.5,23.5C 31.5,23.5 39.5,23.5 47.5,23.5C 47.5,23.8333 47.5,24.1667 47.5,24.5C 47.1667,24.5 46.8333,24.5 46.5,24.5C 38.5,24.5 30.5,24.5 22.5,24.5C 22.5,16.1667 22.5,7.83333 22.5,-0.5 Z"/></g>
<g><path style="opacity:0.993" fill="#ff9dad" d="M 23.5,-0.5 C 31.5,-0.5 39.5,-0.5 47.5,-0.5C 47.5,7.5 47.5,15.5 47.5,23.5C 39.5,23.5 31.5,23.5 23.5,23.5C 23.5,15.5 23.5,7.5 23.5,-0.5 Z"/></g>
<g><path style="opacity:0.993" fill="#ffafab" d="M 47.5,-0.5 C 55.5,-0.5 63.5,-0.5 71.5,-0.5C 71.5,7.5 71.5,15.5 71.5,23.5C 63.5,23.5 55.5,23.5 47.5,23.5C 47.5,15.5 47.5,7.5 47.5,-0.5 Z"/></g>
<g><path style="opacity:0.993" fill="#ffc6ba" d="M 71.5,-0.5 C 79.5,-0.5 87.5,-0.5 95.5,-0.5C 95.5,7.5 95.5,15.5 95.5,23.5C 87.5,23.5 79.5,23.5 71.5,23.5C 71.5,15.5 71.5,7.5 71.5,-0.5 Z"/></g>
<g><path style="opacity:0.973" fill="#ffe0d4" d="M 95.5,-0.5 C 101.167,-0.5 106.833,-0.5 112.5,-0.5C 113.6,0.558465 114.934,1.3918 116.5,2C 117.399,3.65161 118.399,5.15161 119.5,6.5C 119.5,12.1667 119.5,17.8333 119.5,23.5C 111.5,23.5 103.5,23.5 95.5,23.5C 95.5,15.5 95.5,7.5 95.5,-0.5 Z"/></g>
<g><path style="opacity:1" fill="#f579b1" d="M -0.5,24.5 C -0.5,24.1667 -0.5,23.8333 -0.5,23.5C 6.58884,23.1156 13.5888,23.6156 20.5,25C 21.7014,25.9025 22.5348,27.0692 23,28.5C 23.4983,31.8168 23.665,35.1501 23.5,38.5C 23.1667,38.5 22.8333,38.5 22.5,38.5C 22.7989,36.396 22.4656,34.396 21.5,32.5C 18.6826,30.1833 16.0159,27.6833 13.5,25C 11.8659,24.5065 10.1992,24.3398 8.5,24.5C 6.5,24.5 4.5,24.5 2.5,24.5C 1.5,24.5 0.5,24.5 -0.5,24.5 Z"/></g>
<g><path style="opacity:1" fill="#ff9ead" d="M 47.5,23.5 C 55.5,23.5 63.5,23.5 71.5,23.5C 71.5,31.5 71.5,39.5 71.5,47.5C 63.5,47.5 55.5,47.5 47.5,47.5C 47.5,39.8333 47.5,32.1667 47.5,24.5C 47.5,24.1667 47.5,23.8333 47.5,23.5 Z"/></g>
<g><path style="opacity:0.999" fill="#e466af" d="M -0.5,24.5 C 0.5,24.5 1.5,24.5 2.5,24.5C 8.25051,30.4244 13.9172,36.5911 19.5,43C 20.448,43.4828 21.448,43.6495 22.5,43.5C 22.2322,45.099 22.5655,46.4324 23.5,47.5C 24.9187,48.4511 26.5853,48.7845 28.5,48.5C 28.3893,49.1174 28.056,49.6174 27.5,50C 33.2792,56.4459 39.4459,62.6125 46,68.5C 46.2321,69.7375 46.7321,70.7375 47.5,71.5C 48.209,72.404 49.209,72.7373 50.5,72.5C 57.6717,80.3235 64.6717,87.9901 71.5,95.5C 72.5676,96.4345 73.901,96.7678 75.5,96.5C 75.3893,97.1174 75.056,97.6174 74.5,98C 82.4844,104.143 89.1511,111.31 94.5,119.5C 92.8333,119.5 91.1667,119.5 89.5,119.5C 60.2208,88.8874 30.2208,58.8874 -0.5,29.5C -0.5,27.8333 -0.5,26.1667 -0.5,24.5 Z"/></g>
<g><path style="opacity:1" fill="#ea6daf" d="M 2.5,24.5 C 4.5,24.5 6.5,24.5 8.5,24.5C 8.36899,25.2389 8.53566,25.9056 9,26.5C 13.391,30.7302 17.891,34.7302 22.5,38.5C 22.8333,38.5 23.1667,38.5 23.5,38.5C 23.5,41.5 23.5,44.5 23.5,47.5C 22.5655,46.4324 22.2322,45.099 22.5,43.5C 21.448,43.6495 20.448,43.4828 19.5,43C 13.9172,36.5911 8.25051,30.4244 2.5,24.5 Z"/></g>
<g><path style="opacity:1" fill="#ef73b0" d="M 8.5,24.5 C 10.1992,24.3398 11.8659,24.5065 13.5,25C 16.0159,27.6833 18.6826,30.1833 21.5,32.5C 22.4656,34.396 22.7989,36.396 22.5,38.5C 17.891,34.7302 13.391,30.7302 9,26.5C 8.53566,25.9056 8.36899,25.2389 8.5,24.5 Z"/></g>
<g><path style="opacity:1" fill="#fe84af" d="M 46.5,24.5 C 46.8333,24.5 47.1667,24.5 47.5,24.5C 47.5,32.1667 47.5,39.8333 47.5,47.5C 45.3901,47.3508 43.3901,47.3508 41.5,47.5C 35.8333,47.5 30.1667,47.5 24.5,47.5C 24.5,40.1667 24.5,32.8333 24.5,25.5C 32.0191,25.825 39.3524,25.4916 46.5,24.5 Z"/></g>
<g><path style="opacity:1" fill="#ffafab" d="M 71.5,23.5 C 79.5,23.5 87.5,23.5 95.5,23.5C 95.5,31.5 95.5,39.5 95.5,47.5C 87.5,47.5 79.5,47.5 71.5,47.5C 71.5,39.5 71.5,31.5 71.5,23.5 Z"/></g>
<g><path style="opacity:0.998" fill="#ffc7ba" d="M 95.5,23.5 C 103.5,23.5 111.5,23.5 119.5,23.5C 119.5,31.5 119.5,39.5 119.5,47.5C 111.5,47.5 103.5,47.5 95.5,47.5C 95.5,39.5 95.5,31.5 95.5,23.5 Z"/></g>
<g><path style="opacity:0.999" fill="#de60ae" d="M -0.5,29.5 C 30.2208,58.8874 60.2208,88.8874 89.5,119.5C 87.8333,119.5 86.1667,119.5 84.5,119.5C 56.5,90.8333 28.1667,62.5 -0.5,34.5C -0.5,32.8333 -0.5,31.1667 -0.5,29.5 Z"/></g>
<g><path style="opacity:0.999" fill="#db5cae" d="M -0.5,34.5 C 28.1667,62.5 56.5,90.8333 84.5,119.5C 83.8333,119.5 83.1667,119.5 82.5,119.5C 55.1667,91.5 27.5,63.8333 -0.5,36.5C -0.5,35.8333 -0.5,35.1667 -0.5,34.5 Z"/></g>
<g><path style="opacity:0.999" fill="#d859ad" d="M -0.5,36.5 C 27.5,63.8333 55.1667,91.5 82.5,119.5C 81.5,119.5 80.5,119.5 79.5,119.5C 52.5,93.1667 25.8333,66.5 -0.5,39.5C -0.5,38.5 -0.5,37.5 -0.5,36.5 Z"/></g>
<g><path style="opacity:0.999" fill="#d556ad" d="M -0.5,39.5 C 25.8333,66.5 52.5,93.1667 79.5,119.5C 78.5,119.5 77.5,119.5 76.5,119.5C 51.1667,93.5 25.5,67.8333 -0.5,42.5C -0.5,41.5 -0.5,40.5 -0.5,39.5 Z"/></g>
<g><path style="opacity:0.999" fill="#d253ac" d="M -0.5,42.5 C 25.5,67.8333 51.1667,93.5 76.5,119.5C 75.5,119.5 74.5,119.5 73.5,119.5C 49.1667,94.5 24.5,69.8333 -0.5,45.5C -0.5,44.5 -0.5,43.5 -0.5,42.5 Z"/></g>
<g><path style="opacity:0.999" fill="#cf50ac" d="M -0.5,45.5 C 24.5,69.8333 49.1667,94.5 73.5,119.5C 72.5,119.5 71.5,119.5 70.5,119.5C 47.1667,95.5 23.5,71.8333 -0.5,48.5C -0.5,47.5 -0.5,46.5 -0.5,45.5 Z"/></g>
<g><path style="opacity:1" fill="#fd82af" d="M 47.5,47.5 C 54.9818,48.492 62.6484,48.8254 70.5,48.5C 70.1746,56.3516 70.508,64.0182 71.5,71.5C 78.9818,72.492 86.6484,72.8254 94.5,72.5C 94.5,80.5 94.5,88.5 94.5,96.5C 102.833,96.5 111.167,96.5 119.5,96.5C 119.5,96.8333 119.5,97.1667 119.5,97.5C 111.833,97.5 104.167,97.5 96.5,97.5C 96.5,104.833 96.5,112.167 96.5,119.5C 96.1667,119.5 95.8333,119.5 95.5,119.5C 95.5,117.833 95.5,116.167 95.5,114.5C 95.5,112.5 95.5,110.5 95.5,108.5C 97.1348,100.731 94.1348,96.3979 86.5,95.5C 88.6638,95.161 90.8305,95.161 93,95.5C 93.4997,88.1742 93.6663,80.8409 93.5,73.5C 86.1591,73.3337 78.8258,73.5003 71.5,74C 72.4788,80.7445 72.8122,87.5778 72.5,94.5C 76.3714,94.185 80.0381,94.5184 83.5,95.5C 79.5,95.5 75.5,95.5 71.5,95.5C 71.5,93.8333 71.5,92.1667 71.5,90.5C 71.5,88.5 71.5,86.5 71.5,84.5C 73.0536,78.2269 71.0536,73.8935 65.5,71.5C 66.8333,71.5 68.1667,71.5 69.5,71.5C 69.5,64.1667 69.5,56.8333 69.5,49.5C 61.889,48.9238 54.5556,49.5905 47.5,51.5C 45.7278,49.7104 43.7278,48.3771 41.5,47.5C 43.3901,47.3508 45.3901,47.3508 47.5,47.5 Z"/></g>
<g><path style="opacity:0.999" fill="#cc4cab" d="M -0.5,48.5 C 23.5,71.8333 47.1667,95.5 70.5,119.5C 69.5,119.5 68.5,119.5 67.5,119.5C 44.5541,97.2208 21.8874,74.5541 -0.5,51.5C -0.5,50.5 -0.5,49.5 -0.5,48.5 Z"/></g>
<g><path style="opacity:1" fill="#ea6daf" d="M 28.5,48.5 C 30.1667,48.5 31.8333,48.5 33.5,48.5C 33.7286,50.433 34.5619,52.0997 36,53.5C 40.8164,57.1385 44.6498,61.4718 47.5,66.5C 47.5,68.1667 47.5,69.8333 47.5,71.5C 46.7321,70.7375 46.2321,69.7375 46,68.5C 39.4459,62.6125 33.2792,56.4459 27.5,50C 28.056,49.6174 28.3893,49.1174 28.5,48.5 Z"/></g>
<g><path style="opacity:1" fill="#ef73b0" d="M 33.5,48.5 C 39.647,50.638 44.3137,54.638 47.5,60.5C 47.5,62.5 47.5,64.5 47.5,66.5C 44.6498,61.4718 40.8164,57.1385 36,53.5C 34.5619,52.0997 33.7286,50.433 33.5,48.5 Z"/></g>
<g><path style="opacity:1" fill="#f579b1" d="M 23.5,47.5 C 23.8333,47.5 24.1667,47.5 24.5,47.5C 30.1667,47.5 35.8333,47.5 41.5,47.5C 43.7278,48.3771 45.7278,49.7104 47.5,51.5C 47.5,54.5 47.5,57.5 47.5,60.5C 44.3137,54.638 39.647,50.638 33.5,48.5C 31.8333,48.5 30.1667,48.5 28.5,48.5C 26.5853,48.7845 24.9187,48.4511 23.5,47.5 Z"/></g>
<g><path style="opacity:1" fill="#ff88ae" d="M 47.5,47.5 C 55.5,47.5 63.5,47.5 71.5,47.5C 71.5,55.5 71.5,63.5 71.5,71.5C 70.508,64.0182 70.1746,56.3516 70.5,48.5C 62.6484,48.8254 54.9818,48.492 47.5,47.5 Z"/></g>
<g><path style="opacity:1" fill="#ff9eac" d="M 71.5,47.5 C 79.5,47.5 87.5,47.5 95.5,47.5C 95.5,55.5 95.5,63.5 95.5,71.5C 87.5,71.5 79.5,71.5 71.5,71.5C 71.5,63.5 71.5,55.5 71.5,47.5 Z"/></g>
<g><path style="opacity:0.998" fill="#ffafab" d="M 95.5,47.5 C 103.5,47.5 111.5,47.5 119.5,47.5C 119.5,55.5 119.5,63.5 119.5,71.5C 111.5,71.5 103.5,71.5 95.5,71.5C 95.5,63.5 95.5,55.5 95.5,47.5 Z"/></g>
<g><path style="opacity:1" fill="#fe83af" d="M 65.5,71.5 C 59.5,71.5 53.5,71.5 47.5,71.5C 47.5,69.8333 47.5,68.1667 47.5,66.5C 47.5,64.5 47.5,62.5 47.5,60.5C 47.5,57.5 47.5,54.5 47.5,51.5C 54.5556,49.5905 61.889,48.9238 69.5,49.5C 69.5,56.8333 69.5,64.1667 69.5,71.5C 68.1667,71.5 66.8333,71.5 65.5,71.5 Z"/></g>
<g><path style="opacity:0.999" fill="#c948ab" d="M -0.5,51.5 C 21.8874,74.5541 44.5541,97.2208 67.5,119.5C 66.5,119.5 65.5,119.5 64.5,119.5C 43.1667,97.5 21.5,75.8333 -0.5,54.5C -0.5,53.5 -0.5,52.5 -0.5,51.5 Z"/></g>
<g><path style="opacity:0.999" fill="#c645aa" d="M -0.5,54.5 C 21.5,75.8333 43.1667,97.5 64.5,119.5C 63.5,119.5 62.5,119.5 61.5,119.5C 41.1667,98.5 20.5,77.8333 -0.5,57.5C -0.5,56.5 -0.5,55.5 -0.5,54.5 Z"/></g>
<g><path style="opacity:0.999" fill="#c342aa" d="M -0.5,57.5 C 20.5,77.8333 41.1667,98.5 61.5,119.5C 60.1667,119.5 58.8333,119.5 57.5,119.5C 38.5,99.8333 19.1667,80.5 -0.5,61.5C -0.5,60.1667 -0.5,58.8333 -0.5,57.5 Z"/></g>
<g><path style="opacity:0.999" fill="#c03faa" d="M -0.5,61.5 C 19.1667,80.5 38.5,99.8333 57.5,119.5C 56.8333,119.5 56.1667,119.5 55.5,119.5C 37.1667,100.5 18.5,81.8333 -0.5,63.5C -0.5,62.8333 -0.5,62.1667 -0.5,61.5 Z"/></g>
<g><path style="opacity:0.999" fill="#be3ca9" d="M -0.5,63.5 C 18.5,81.8333 37.1667,100.5 55.5,119.5C 54.1667,119.5 52.8333,119.5 51.5,119.5C 34.5,101.833 17.1667,84.5 -0.5,67.5C -0.5,66.1667 -0.5,64.8333 -0.5,63.5 Z"/></g>
<g><path style="opacity:0.999" fill="#b836a8" d="M -0.5,67.5 C 17.1667,84.5 34.5,101.833 51.5,119.5C 49.5,119.5 47.5,119.5 45.5,119.5C 30.5,103.833 15.1667,88.5 -0.5,73.5C -0.5,71.5 -0.5,69.5 -0.5,67.5 Z"/></g>
<g><path style="opacity:1" fill="#f579b1" d="M 47.5,71.5 C 53.5,71.5 59.5,71.5 65.5,71.5C 71.0536,73.8935 73.0536,78.2269 71.5,84.5C 68.8386,80.3208 65.5053,76.4875 61.5,73C 59.8659,72.5065 58.1992,72.3398 56.5,72.5C 54.5,72.5 52.5,72.5 50.5,72.5C 49.209,72.7373 48.209,72.404 47.5,71.5 Z"/></g>
<g><path style="opacity:0.998" fill="#ff9dad" d="M 95.5,71.5 C 103.5,71.5 111.5,71.5 119.5,71.5C 119.5,79.5 119.5,87.5 119.5,95.5C 111.5,95.5 103.5,95.5 95.5,95.5C 95.5,87.5 95.5,79.5 95.5,71.5 Z"/></g>
<g><path style="opacity:1" fill="#ea6daf" d="M 50.5,72.5 C 52.5,72.5 54.5,72.5 56.5,72.5C 60.4223,77.427 64.7556,82.0936 69.5,86.5C 70.1719,87.9492 70.8386,89.2825 71.5,90.5C 71.5,92.1667 71.5,93.8333 71.5,95.5C 64.6717,87.9901 57.6717,80.3235 50.5,72.5 Z"/></g>
<g><path style="opacity:1" fill="#ef73b0" d="M 56.5,72.5 C 58.1992,72.3398 59.8659,72.5065 61.5,73C 65.5053,76.4875 68.8386,80.3208 71.5,84.5C 71.5,86.5 71.5,88.5 71.5,90.5C 70.8386,89.2825 70.1719,87.9492 69.5,86.5C 64.7556,82.0936 60.4223,77.427 56.5,72.5 Z"/></g>
<g><path style="opacity:1" fill="#fe89ae" d="M 71.5,71.5 C 79.5,71.5 87.5,71.5 95.5,71.5C 95.5,79.5 95.5,87.5 95.5,95.5C 103.5,95.5 111.5,95.5 119.5,95.5C 119.5,95.8333 119.5,96.1667 119.5,96.5C 111.167,96.5 102.833,96.5 94.5,96.5C 94.5,88.5 94.5,80.5 94.5,72.5C 86.6484,72.8254 78.9818,72.492 71.5,71.5 Z"/></g>
<g><path style="opacity:0.998" fill="#b432a8" d="M -0.5,73.5 C 15.1667,88.5 30.5,103.833 45.5,119.5C 44.8333,119.5 44.1667,119.5 43.5,119.5C 29.1667,104.5 14.5,89.8333 -0.5,75.5C -0.5,74.8333 -0.5,74.1667 -0.5,73.5 Z"/></g>
<g><path style="opacity:1" fill="#fe84ae" d="M 86.5,95.5 C 85.5,95.5 84.5,95.5 83.5,95.5C 80.0381,94.5184 76.3714,94.185 72.5,94.5C 72.8122,87.5778 72.4788,80.7445 71.5,74C 78.8258,73.5003 86.1591,73.3337 93.5,73.5C 93.6663,80.8409 93.4997,88.1742 93,95.5C 90.8305,95.161 88.6638,95.161 86.5,95.5 Z"/></g>
<g><path style="opacity:0.999" fill="#b12ea7" d="M -0.5,75.5 C 14.5,89.8333 29.1667,104.5 43.5,119.5C 41.8333,119.5 40.1667,119.5 38.5,119.5C 25.1667,106.833 12.1667,93.8333 -0.5,80.5C -0.5,78.8333 -0.5,77.1667 -0.5,75.5 Z"/></g>
<g><path style="opacity:0.998" fill="#ab28a6" d="M -0.5,80.5 C 12.1667,93.8333 25.1667,106.833 38.5,119.5C 36.8333,119.5 35.1667,119.5 33.5,119.5C 21.8333,108.5 10.5,97.1667 -0.5,85.5C -0.5,83.8333 -0.5,82.1667 -0.5,80.5 Z"/></g>
<g><path style="opacity:0.998" fill="#a522a5" d="M -0.5,85.5 C 10.5,97.1667 21.8333,108.5 33.5,119.5C 30.8333,119.5 28.1667,119.5 25.5,119.5C 17.1667,110.5 8.5,101.833 -0.5,93.5C -0.5,90.8333 -0.5,88.1667 -0.5,85.5 Z"/></g>
<g><path style="opacity:0.997" fill="#9f1ba4" d="M -0.5,93.5 C 8.5,101.833 17.1667,110.5 25.5,119.5C 23.8333,119.5 22.1667,119.5 20.5,119.5C 13.8333,112.167 6.83333,105.167 -0.5,98.5C -0.5,96.8333 -0.5,95.1667 -0.5,93.5 Z"/></g>
<g><path style="opacity:1" fill="#ea6daf" d="M 75.5,96.5 C 77.1667,96.5 78.8333,96.5 80.5,96.5C 84.1647,101.822 88.4981,106.489 93.5,110.5C 94.1719,111.949 94.8386,113.282 95.5,114.5C 95.5,116.167 95.5,117.833 95.5,119.5C 95.1667,119.5 94.8333,119.5 94.5,119.5C 89.1511,111.31 82.4844,104.143 74.5,98C 75.056,97.6174 75.3893,97.1174 75.5,96.5 Z"/></g>
<g><path style="opacity:1" fill="#ef73b0" d="M 80.5,96.5 C 87.2063,98.1903 92.2063,102.19 95.5,108.5C 95.5,110.5 95.5,112.5 95.5,114.5C 94.8386,113.282 94.1719,111.949 93.5,110.5C 88.4981,106.489 84.1647,101.822 80.5,96.5 Z"/></g>
<g><path style="opacity:1" fill="#f579b1" d="M 71.5,95.5 C 75.5,95.5 79.5,95.5 83.5,95.5C 84.5,95.5 85.5,95.5 86.5,95.5C 94.1348,96.3979 97.1348,100.731 95.5,108.5C 92.2063,102.19 87.2063,98.1903 80.5,96.5C 78.8333,96.5 77.1667,96.5 75.5,96.5C 73.901,96.7678 72.5676,96.4345 71.5,95.5 Z"/></g>
<g><path style="opacity:0.978" fill="#ff84af" d="M 119.5,97.5 C 119.5,102.833 119.5,108.167 119.5,113.5C 117.833,115.833 115.833,117.833 113.5,119.5C 107.833,119.5 102.167,119.5 96.5,119.5C 96.5,112.167 96.5,104.833 96.5,97.5C 104.167,97.5 111.833,97.5 119.5,97.5 Z"/></g>
<g><path style="opacity:0.996" fill="#9a14a3" d="M -0.5,98.5 C 6.83333,105.167 13.8333,112.167 20.5,119.5C 17.8333,119.5 15.1667,119.5 12.5,119.5C 8.5,114.833 4.16667,110.5 -0.5,106.5C -0.5,103.833 -0.5,101.167 -0.5,98.5 Z"/></g>
<g><path style="opacity:0.677" fill="#910ba2" d="M -0.5,106.5 C 4.16667,110.5 8.5,114.833 12.5,119.5C 10.1667,119.5 7.83333,119.5 5.5,119.5C 3.16667,117.833 1.16667,115.833 -0.5,113.5C -0.5,111.167 -0.5,108.833 -0.5,106.5 Z"/></g>
</svg>
