<svg width="17" height="19" viewBox="0 0 17 19" fill="none" xmlns="http://www.w3.org/2000/svg">
<path fill-rule="evenodd" clip-rule="evenodd" d="M1.94786 11.4834L0.570916 13.3028C0.385175 13.5488 0.434864 13.8979 0.684035 14.0818C0.785377 14.1575 0.903867 14.1932 1.02153 14.1932C1.1924 14.1932 1.36182 14.1162 1.47246 13.9701L3.28752 11.5716C3.28916 11.57 3.29019 11.5679 3.29121 11.5658C3.29192 11.5644 3.29262 11.5629 3.29351 11.5617L1.94786 11.4834ZM4.91577 11.656L4.27889 11.6191L0.243503 18.1353C0.0818314 18.3974 0.164578 18.7402 0.429968 18.9005C0.521496 18.9562 0.623561 18.9823 0.723767 18.9823C0.912504 18.9823 1.09773 18.8877 1.20372 18.7164L5.23818 12.2009L4.91577 11.656ZM5.73671 13.0492C5.73758 13.0479 5.73846 13.0466 5.73915 13.0452L6.42096 14.195L5.40796 16.2344C5.31075 16.4317 5.11013 16.5461 4.9028 16.5461C4.81912 16.5461 4.73472 16.5279 4.65455 16.4885C4.37573 16.3531 4.26045 16.0196 4.39774 15.7436L5.73368 13.0547C5.73428 13.0528 5.73549 13.051 5.73671 13.0492Z" fill="#FBC02D"/>
<path d="M11.3567 6.26529L11.949 0.300293L6.84398 3.53186L1.29156 1.13116L2.82099 6.93146L0.0591354 10.0101L2.21252 10.1249L4.68285 7.3726L3.8031 4.04L6.99388 5.41962L9.92907 3.5619L9.58817 6.99055L12.2805 9.17468L8.88022 9.91519L7.52548 13.3387L8.60843 15.1846L10.1236 11.3542L16.0423 10.0665L11.3567 6.26529Z" fill="#E54A4A"/>
</svg>
